<svg xmlns="http://www.w3.org/2000/svg" viewBox="0 0 64 64">
  <rect width="64" height="64" rx="16" fill="#f6f1e8"/>
  <path
    d="M14 18c0-4.4 3.6-8 8-8h24c4.4 0 8 3.6 8 8v19c0 4.4-3.6 8-8 8H31.5L20.8 54c-1.3 1.1-3.3.1-3.1-1.6L19 44.7c-3-.9-5-3.7-5-7V18Z"
    fill="#ff875c"
  />
  <path
    d="M19 19.5c0-2.8 2.2-5 5-5h20c2.8 0 5 2.2 5 5v16c0 2.8-2.2 5-5 5H30.1l-7.1 6 1-6.2c-2.8-.1-5-2.3-5-5V19.5Z"
    fill="#fffaf2"
  />
  <path
    d="M29.2 29.1c0-3.9 5.9-3.4 5.9-6.6 0-1.6-1.3-2.6-3.4-2.6-2 0-3.6.8-5 2.2l-3.1-3.6c2.2-2.3 5.2-3.7 8.7-3.7 5 0 8.6 2.3 8.6 6.7 0 5.3-6.5 5.6-6.5 8.4v1.1h-5.2v-1.9Zm-.5 8.2c0-1.9 1.5-3.4 3.5-3.4s3.5 1.5 3.5 3.4-1.5 3.4-3.5 3.4-3.5-1.5-3.5-3.4Z"
    fill="#263238"
  />
  <path
    d="M49.5 9.5 51 14l4.5 1.5L51 17l-1.5 4.5L48 17l-4.5-1.5L48 14l1.5-4.5Z"
    fill="#2f8f7b"
  />
</svg>
